<svg xmlns="http://www.w3.org/2000/svg" viewBox="0 0 512 512" role="img" aria-labelledby="title desc">
  <title id="title">myCocomo symbol</title>
  <desc id="desc">A coral location pin containing mountains, water and sunlight.</desc>
  <rect width="512" height="512" rx="112" fill="#F6F2EA"/>
  <path d="M256 54c-104 0-188 80-188 179 0 128 142 221 176 242a23 23 0 0 0 24 0c34-21 176-114 176-242 0-99-84-179-188-179Z" fill="#FF7A6B"/>
  <circle cx="256" cy="229" r="125" fill="#FFFDF8"/>
  <circle cx="334" cy="164" r="25" fill="#F4C15D"/>
  <path d="M128 267 216 169l54 62 38-43 76 79v42H128Z" fill="#5FA57A"/>
  <path d="m216 169 54 62-27 31-36-35-34 40h-45Z" fill="#4A90E2" opacity=".22"/>
  <path d="M138 292c38-18 72-18 110 0s72 18 110 0" fill="none" stroke="#4A90E2" stroke-width="18" stroke-linecap="round"/>
  <path d="M151 330c31-14 61-14 92 0s61 14 92 0" fill="none" stroke="#4A90E2" stroke-width="13" stroke-linecap="round" opacity=".9"/>
</svg>
