<svg xmlns="http://www.w3.org/2000/svg" viewBox="0 0 720 190" role="img" aria-labelledby="title desc">
  <title id="title">myCocomo</title>
  <desc id="desc">myCocomo logo with a location pin, mountains, water and sunlight.</desc>
  <g transform="translate(10 5) scale(.35)">
    <path d="M256 54c-104 0-188 80-188 179 0 128 142 221 176 242a23 23 0 0 0 24 0c34-21 176-114 176-242 0-99-84-179-188-179Z" fill="#FF7A6B"/>
    <circle cx="256" cy="229" r="125" fill="#FFFDF8"/>
    <circle cx="334" cy="164" r="25" fill="#F4C15D"/>
    <path d="M128 267 216 169l54 62 38-43 76 79v42H128Z" fill="#5FA57A"/>
    <path d="M138 292c38-18 72-18 110 0s72 18 110 0" fill="none" stroke="#4A90E2" stroke-width="18" stroke-linecap="round"/>
    <path d="M151 330c31-14 61-14 92 0s61 14 92 0" fill="none" stroke="#4A90E2" stroke-width="13" stroke-linecap="round"/>
  </g>
  <text x="205" y="116" fill="#333333" font-family="Arial Rounded MT Bold, Nunito, Arial, sans-serif" font-size="78" font-weight="700" letter-spacing="-3">my<tspan fill="#FF7A6B">C</tspan><tspan fill="#F4C15D">o</tspan><tspan fill="#5FA57A">c</tspan><tspan fill="#4A90E2">o</tspan><tspan fill="#FF7A6B">m</tspan><tspan fill="#F4C15D">o</tspan></text>
  <text x="209" y="154" fill="#333333" font-family="-apple-system, BlinkMacSystemFont, Noto Sans JP, sans-serif" font-size="22" font-weight="600" letter-spacing="2">ここも、行きたいが見つかる。</text>
</svg>
